<svg viewBox="0 0 244 244" xmlns="http://www.w3.org/2000/svg" fill-rule="evenodd" clip-rule="evenodd" stroke-linejoin="round" stroke-miterlimit="1.414"><circle cx="136" cy="133" r="92" transform="translate(-19.174 -16.06) scale(1.03804)"/><circle cx="141.75" cy="137.75" r="79.75" fill="#fef102" transform="translate(-29.735 -25.25) scale(1.06897)"/><path d="M162.209 90c-2.034-4.566-3.93-13.587-9.145-15.593-6.715-2.582-10.866 14.322-11.855 18.593h-1c-1.693-7.318-3.965-17.69-12-20-3.72 15.624 3.886 32.479 11 46 7.596-3.63 11.297-14.998 12-23h1l8 24c6.436-1.85 8.675-8.219 10.999-14 4.989-12.408 9.175-27.668 6-41-9.604 2.72-12.526 16.455-15 25m-96 32c8.596-4.104 12.686-17.094 14-26h1c1.018 4.293 3.737 15.368 9.1 16.079 6.835.904 10.418-14.26 10.9-19.079h1c2.18 7.529 4.476 17.32 12 21 2.777-11.66-.547-24.095-4.811-35-1.096-2.804-3.347-10.364-7.213-10.364-6.334 0-9.895 16.696-10.975 21.364h-1l-8-24c-14.072 6.72-21.716 42.453-16 56m-15 12c10.443 45.551 58.612 71.374 102 52.138 15.79-7.001 28.317-19.475 35.539-35.138 1.866-4.047 5.53-11.372 3.394-16.682-2.128-5.289-22.767 3.353-27.924 5.61a2.324 2.324 0 0 0-1.354 1.774 4.033 4.033 0 0 0 3.68 4.631l8.665.667c-15.687 30.365-58.101 43.791-88 19.532-6.692-5.429-12.662-11.88-16.68-19.532-1.943-3.7-3.745-8.432-7.048-10.971-3.173-2.44-7.987-3.276-12.272-2.029z" fill-rule="nonzero"/></svg>